<?xml version="1.0" encoding="utf-8"?>
<!-- Generator: Adobe Illustrator 15.0.0, SVG Export Plug-In  -->
<!DOCTYPE svg PUBLIC "-//W3C//DTD SVG 1.1//EN" "http://www.w3.org/Graphics/SVG/1.1/DTD/svg11.dtd" [
	<!ENTITY ns_flows "http://ns.adobe.com/Flows/1.0/">
]>
<svg version="1.1"
	 xmlns="http://www.w3.org/2000/svg" xmlns:xlink="http://www.w3.org/1999/xlink" xmlns:a="http://ns.adobe.com/AdobeSVGViewerExtensions/3.0/"
	 x="0px" y="0px" width="317px" height="198px" viewBox="0 -13.026 317 198"
	 overflow="visible" enable-background="new 0 -13.026 317 198" xml:space="preserve">
<defs>
</defs>
<text transform="matrix(1.1972 0 0 1 0 123.0938)"><tspan x="0" y="0" fill="#FFFFFF" font-family="'Zapfino'" font-size="59.0022">B</tspan><tspan x="71.835" y="0" fill="#FFFFFF" font-family="'Zapfino'" font-size="41.3015">ozilady</tspan></text>
<text transform="matrix(1 0 0 1 76.3418 177.8467)"><tspan x="0" y="0" fill="#FFFFFF" font-family="'Zapfino'" font-size="29.3107">W</tspan><tspan x="55.25" y="0" fill="#FFFFFF" font-family="'Zapfino'" font-size="20.5175">ellness</tspan></text>
<path opacity="0.15" fill="#FFFFFF" d="M179.326,30.359c-7.968,7.037-13.208,15.959-14.156,28.025
	c11.05-0.348,20.902-3.061,29.586-10.732c7.733-6.826,13.693-17.326,14.295-27.865C198.204,19.948,186.206,24.285,179.326,30.359z"
	/>
<path opacity="0.8" fill="#FFFFFF" d="M164.271,26.936c3.94,9.871,4.597,20.199,0.003,31.398
	c-9.707-5.289-17.277-12.154-21.572-22.914c-3.827-9.582-4.412-21.642-0.199-31.321C152.11,9.132,160.866,18.413,164.271,26.936z"/>
<path opacity="0.5" fill="#FFFFFF" d="M176.679,29.277c0,10.631-3.218,20.467-11.638,29.162c-7.054-8.51-11.54-17.691-11.54-29.277
	c0-10.317,3.927-21.736,11.427-29.162C171.986,8.237,176.679,20.103,176.679,29.277z"/>
<path opacity="0.3" fill="#FFFFFF" d="M164.895,27.268c-3.643,9.988-3.985,20.328,0.944,31.383
	c9.544-5.58,16.902-12.672,20.869-23.555c3.534-9.695,3.755-21.768-0.749-31.312C176.509,9.103,168.033,18.646,164.895,27.268z"/>
<path fill="#FFFFFF" d="M150.994,30.359c7.968,7.037,13.208,15.959,14.157,28.025c-11.05-0.348-20.902-3.061-29.588-10.732
	c-7.734-6.826-13.692-17.326-14.294-27.865C132.115,19.948,144.116,24.285,150.994,30.359z"/>
</svg>
